<mxfile host="app.diagrams.net" modified="2024-05-01T13:16:16.631Z" agent="Mozilla/5.0 (X11; Linux x86_64) AppleWebKit/537.36 (KHTML, like Gecko) Chrome/124.0.0.0 Safari/537.36" etag="JtpVYweSgQhQffVTsLZG" version="24.3.1" type="github">
  <diagram name="Page-1" id="VR23pBkyaJL4KPW9zvLs">
    <mxGraphModel dx="3284" dy="1839" grid="1" gridSize="10" guides="1" tooltips="1" connect="1" arrows="1" fold="1" page="1" pageScale="1" pageWidth="850" pageHeight="1100" math="0" shadow="0">
      <root>
        <mxCell id="0" />
        <mxCell id="1" parent="0" />
        <mxCell id="JSHK-WSYukH9IqYs7J1q-11" value="" style="rounded=0;whiteSpace=wrap;html=1;" vertex="1" parent="1">
          <mxGeometry x="50" y="60" width="1030" height="960" as="geometry" />
        </mxCell>
        <mxCell id="JSHK-WSYukH9IqYs7J1q-1" value="container1" style="rounded=0;whiteSpace=wrap;html=1;" vertex="1" parent="1">
          <mxGeometry x="180" y="290" width="120" height="60" as="geometry" />
        </mxCell>
        <mxCell id="JSHK-WSYukH9IqYs7J1q-8" style="edgeStyle=orthogonalEdgeStyle;rounded=0;orthogonalLoop=1;jettySize=auto;html=1;entryX=0.25;entryY=0;entryDx=0;entryDy=0;" edge="1" parent="1" source="JSHK-WSYukH9IqYs7J1q-3" target="JSHK-WSYukH9IqYs7J1q-7">
          <mxGeometry relative="1" as="geometry" />
        </mxCell>
        <mxCell id="JSHK-WSYukH9IqYs7J1q-3" value="kind-node1" style="rounded=0;whiteSpace=wrap;html=1;" vertex="1" parent="1">
          <mxGeometry x="110" y="410" width="270" height="130" as="geometry" />
        </mxCell>
        <mxCell id="JSHK-WSYukH9IqYs7J1q-9" style="edgeStyle=orthogonalEdgeStyle;rounded=0;orthogonalLoop=1;jettySize=auto;html=1;entryX=0.75;entryY=0;entryDx=0;entryDy=0;" edge="1" parent="1" source="JSHK-WSYukH9IqYs7J1q-4" target="JSHK-WSYukH9IqYs7J1q-7">
          <mxGeometry relative="1" as="geometry" />
        </mxCell>
        <mxCell id="JSHK-WSYukH9IqYs7J1q-4" value="kind-node2" style="rounded=0;whiteSpace=wrap;html=1;" vertex="1" parent="1">
          <mxGeometry x="600" y="410" width="280" height="140" as="geometry" />
        </mxCell>
        <mxCell id="JSHK-WSYukH9IqYs7J1q-10" style="edgeStyle=orthogonalEdgeStyle;rounded=0;orthogonalLoop=1;jettySize=auto;html=1;" edge="1" parent="1" source="JSHK-WSYukH9IqYs7J1q-5" target="JSHK-WSYukH9IqYs7J1q-4">
          <mxGeometry relative="1" as="geometry" />
        </mxCell>
        <mxCell id="JSHK-WSYukH9IqYs7J1q-5" value="container2" style="rounded=0;whiteSpace=wrap;html=1;" vertex="1" parent="1">
          <mxGeometry x="680" y="300" width="120" height="60" as="geometry" />
        </mxCell>
        <mxCell id="JSHK-WSYukH9IqYs7J1q-6" style="edgeStyle=orthogonalEdgeStyle;rounded=0;orthogonalLoop=1;jettySize=auto;html=1;entryX=0.478;entryY=0.008;entryDx=0;entryDy=0;entryPerimeter=0;" edge="1" parent="1" source="JSHK-WSYukH9IqYs7J1q-1" target="JSHK-WSYukH9IqYs7J1q-3">
          <mxGeometry relative="1" as="geometry" />
        </mxCell>
        <mxCell id="JSHK-WSYukH9IqYs7J1q-7" value="linux bridge" style="rounded=0;whiteSpace=wrap;html=1;" vertex="1" parent="1">
          <mxGeometry x="250" y="630" width="520" height="190" as="geometry" />
        </mxCell>
        <mxCell id="JSHK-WSYukH9IqYs7J1q-12" value="linux host" style="text;html=1;align=center;verticalAlign=middle;whiteSpace=wrap;rounded=0;" vertex="1" parent="1">
          <mxGeometry x="50" y="990" width="80" height="30" as="geometry" />
        </mxCell>
      </root>
    </mxGraphModel>
  </diagram>
</mxfile>
